<svg id="Layer_1" data-name="Layer 1" xmlns="http://www.w3.org/2000/svg" viewBox="0 0 190.49 190.54"><defs><style>.cls-1{fill:#020202;}</style></defs><title>create-new</title><path class="cls-1" d="M4.75,36.25H109.43l.15.18a5.52,5.52,0,0,0-.6.45q-7.37,7.36-14.72,14.74a1.68,1.68,0,0,1-1.3.54q-35.7,0-71.39,0c-.78,0-.93.18-.93.94q0,62.68,0,125.37c0,.76.17.93.93.93q62.68,0,125.37,0c.76,0,.94-.16.94-.93q0-35.66,0-71.31a1.85,1.85,0,0,1,.61-1.44c5.07-5,10.12-10.1,15.31-15.29v.95q0,51.51,0,103c0,.73-.18.89-.89.89q-79.06,0-158.13,0Z" transform="translate(-4.75 -4.73)"/><path class="cls-1" d="M192.26,16.87A23.11,23.11,0,0,0,173,4.75h-1.77l-.8,0a11.72,11.72,0,0,0-1.19,0,23.53,23.53,0,0,0-14.1,6.78L141.61,25,120.72,45.86,75.05,91.38a1.91,1.91,0,0,0-.61,1q-.89,4.58-1.79,9.13c-1,5-1.91,10-2.92,14.94-1.15,5.67-2.35,11.33-3.54,17-.1.46,0,.48.43.39,6.42-1.4,12.85-2.74,19.3-4,6.67-1.28,13.32-2.64,20-3.9a6.6,6.6,0,0,0,3.73-1.94c5.32-5.47,10.73-10.86,16.11-16.27l57-57.19c2.06-2.07,4.18-4.08,6.16-6.21a23,23,0,0,0,6.27-14.79A22.25,22.25,0,0,0,192.26,16.87ZM179.8,28.28a7.61,7.61,0,0,1-2.31,5.13c-.26.29-.55.57-.83.85Q139,71.91,101.36,109.59a5.22,5.22,0,0,1-2.88,1.55c-3.71.71-7.42,1.47-11.12,2.21-.76.15-.86.05-.7-.72.84-4.12,1.68-8.23,2.49-12.35a1.58,1.58,0,0,1,.51-.84L106,83.08q30-30,60-60a11.28,11.28,0,0,1,3.21-2.41,5.56,5.56,0,0,1,4.95,0,10.12,10.12,0,0,1,5.41,6,9.94,9.94,0,0,1,.25,1.08A3.37,3.37,0,0,1,179.8,28.28Z" transform="translate(-4.75 -4.73)"/></svg>