<svg id="Layer_1" data-name="Layer 1" xmlns="http://www.w3.org/2000/svg" viewBox="0 0 149.92 150.37"><defs><style>.cls-1{fill:#010101;}</style></defs><title>search</title><path class="cls-1" d="M152.46,136.65q-14.29-14.28-28.57-28.57c-2.43-2.43-4.85-4.89-7.32-7.29-2.13-2.07-4.84-2.46-7.09-.89-.93.66-1.36.42-2-.27-3.51-3.57-7-7.13-10.63-10.62-.75-.73-.79-1.12-.15-2,9.93-13.07,13.59-27.76,9.81-43.72C101.62,22.79,88.58,9.68,68.26,3.85c-2.53-.73-5.18-.85-7.71-1.54h-11c-1.68.3-3.39.28-5.08.62a51.37,51.37,0,0,0-16,6.18,52.31,52.31,0,0,0-23,27.74c-10.43,28.54,7.45,61,36.39,68.66a52.39,52.39,0,0,0,45-8.84c.49-.37.87-1,1.65-.23,3.77,3.84,7.59,7.63,11.4,11.41.45.45.49.73.12,1.3-1.82,2.82-1.5,5.3.92,7.72q11.4,11.4,22.8,22.81,6.45,6.48,12.85,13C137.72,152.69,152.71,136.9,152.46,136.65ZM55.25,96.08A41.38,41.38,0,1,1,96.67,54.57,41.39,41.39,0,0,1,55.25,96.08Z" transform="translate(-2.54 -2.31)"/></svg>